<svg xmlns="http://www.w3.org/2000/svg" width="42" height="42" viewBox="0 0 42 42" fill="none">
<rect width="42" height="42" rx="21" fill="white" fill-opacity="0.2"/>
<path d="M23.9998 17H24.0091" stroke="white" stroke-linecap="round" stroke-linejoin="round"/>
<path d="M26 13H16C14.3431 13 13 14.3431 13 16V26C13 27.6569 14.3431 29 16 29H26C27.6569 29 29 27.6569 29 26V16C29 14.3431 27.6569 13 26 13Z" stroke="white" stroke-linecap="round" stroke-linejoin="round"/>
<path d="M13 24.0001L17 20.0001C17.4561 19.5612 17.9734 19.3302 18.5 19.3302C19.0266 19.3302 19.5439 19.5612 20 20.0001L25 25.0001" stroke="white" stroke-linecap="round" stroke-linejoin="round"/>
<path d="M23.0002 23L24.0002 22C24.4562 21.5611 24.9736 21.3301 25.5002 21.3301C26.0268 21.3301 26.5441 21.5611 27.0002 22L29.0002 24" stroke="white" stroke-linecap="round" stroke-linejoin="round"/>
</svg>